<svg height="512pt" viewBox="-37 0 512 512.0015" width="512pt" xmlns="http://www.w3.org/2000/svg"><path d="m300.632812 504.5c-4.066406 0-8.191406-1.023438-11.980468-3.175781-31.453125-17.859375-52.921875-41.726563-67.5625-75.109375-16.0625-36.621094-23.871094-86.058594-23.871094-151.132813 0-13.425781 10.878906-24.308593 24.304688-24.308593 13.421874 0 24.304687 10.882812 24.304687 24.308593 0 128.332031 32.121094 164.261719 66.832031 183.972657 11.671875 6.628906 15.761719 21.464843 9.132813 33.136718-4.480469 7.882813-12.699219 12.308594-21.160157 12.308594zm0 0" fill="#8ee2cf"/><path d="m221.523438 189.171875 90.660156-90.660156c20.824218-20.828125 20.824218-54.59375 0-75.417969-20.828125-20.828125-54.589844-20.828125-75.417969 0l-12.535156 12.53125c-1.496094 1.5-3.921875 1.5-5.417969 0l-12.535156-12.535156c-20.824219-20.824219-54.589844-20.824219-75.417969 0-20.824219 20.828125-20.824219 54.59375 0 75.417968zm0 0" fill="#89d47f"/><path d="m221.523438 178.648438c-4.144532 0-7.503907-3.355469-7.503907-7.5v-66.796876c0-4.144531 3.359375-7.5 7.503907-7.5 4.140624 0 7.5 3.355469 7.5 7.5v66.796876c0 4.144531-3.359376 7.5-7.5 7.5zm0 0" fill="#5ec783"/><path d="m221.523438 189.171875-90.664063-90.660156c-20.824219-20.828125-54.589844-20.828125-75.417969 0-20.824218 20.824219-20.824218 54.589843 0 75.414062l12.535156 12.535157c1.496094 1.496093 1.496094 3.925781 0 5.421874l-12.535156 12.53125c-20.824218 20.828126-20.824218 54.59375 0 75.417969 20.828125 20.828125 54.59375 20.828125 75.417969 0zm0 0" fill="#8ee2cf"/><path d="m203.5 196.671875h-66.796875c-4.144531 0-7.5-3.359375-7.5-7.5 0-4.144531 3.355469-7.5 7.5-7.5h66.796875c4.140625 0 7.5 3.355469 7.5 7.5 0 4.140625-3.359375 7.5-7.5 7.5zm0 0" fill="#6fce91"/><path d="m221.523438 189.171875-90.664063 90.660156c-20.824219 20.828125-20.824219 54.589844 0 75.417969 20.828125 20.824219 54.589844 20.824219 75.417969 0l12.535156-12.535156c1.496094-1.496094 3.921875-1.496094 5.417969 0l12.535156 12.535156c20.824219 20.824219 54.589844 20.824219 75.417969 0 20.824218-20.828125 20.824218-54.589844 0-75.417969zm0 0" fill="#89d47f"/><path d="m221.523438 281.492188c-4.144532 0-7.503907-3.359376-7.503907-7.5v-66.800782c0-4.140625 3.359375-7.5 7.503907-7.5 4.140624 0 7.5 3.359375 7.5 7.5v66.800782c0 4.140624-3.359376 7.5-7.5 7.5zm0 0" fill="#5ec783"/><path d="m221.523438 189.171875 90.660156 90.660156c20.828125 20.828125 54.589844 20.828125 75.417968 0 20.824219-20.824219 20.824219-54.589843 0-75.417969l-12.535156-12.53125c-1.496094-1.496093-1.496094-3.925781 0-5.421874l12.535156-12.535157c20.824219-20.824219 20.824219-54.589843 0-75.414062-20.828124-20.828125-54.589843-20.828125-75.417968 0zm0 0" fill="#8ee2cf"/><path d="m306.339844 196.671875h-66.796875c-4.140625 0-7.5-3.359375-7.5-7.5 0-4.144531 3.359375-7.5 7.5-7.5h66.796875c4.144531 0 7.503906 3.355469 7.503906 7.5 0 4.140625-3.359375 7.5-7.503906 7.5zm0 0" fill="#6fce91"/><path d="m130.859375 355.25c20.828125 20.824219 54.59375 20.824219 75.417969 0l12.535156-12.535156c1.496094-1.496094 3.921875-1.496094 5.421875 0l12.535156 12.535156c18.257813 18.257812 46.464844 20.503906 67.175781 6.746094-74.425781-12.683594-136.8125-55.800782-144.027343-111.222656l-29.054688 29.058593c-20.828125 20.824219-20.828125 54.589844-.003906 75.417969zm0 0" fill="#5ec783"/><path d="m130.859375 279.832031 15.507813-15.507812c-58.234376-33.359375-67.785157-118.667969-49.5625-181.292969-14.835938-1.015625-30.015626 4.136719-41.359376 15.480469-20.828124 20.824219-20.828124 54.589843 0 75.414062l12.53125 12.535157c1.5 1.496093 1.5 3.925781 0 5.421874l-12.53125 12.53125c-20.828124 20.828126-20.828124 54.59375 0 75.417969 20.824219 20.824219 54.589844 20.824219 75.414063 0zm0 0" fill="#6fce91"/><path d="m394.234375 384.988281c-1.25 3.613281-6.355469 3.613281-7.605469 0-5.375-15.523437-17.574218-27.726562-33.097656-33.097656-3.613281-1.25-3.613281-6.359375 0-7.605469 15.523438-5.375 27.722656-17.574218 33.097656-33.097656 1.25-3.613281 6.355469-3.613281 7.605469 0 5.375 15.523438 17.574219 27.722656 33.097656 33.097656 3.613281 1.25 3.613281 6.355469 0 7.605469-15.523437 5.371094-27.722656 17.570313-33.097656 33.097656zm0 0" fill="#b49cdc"/><path d="m50.914062 135.222656c-1.25 3.613282-6.359374 3.613282-7.609374 0-5.371094-15.523437-17.574219-27.722656-33.097657-33.097656-3.609375-1.25-3.609375-6.355469 0-7.605469 15.527344-5.375 27.726563-17.574219 33.097657-33.097656 1.25-3.613281 6.359374-3.613281 7.609374 0 5.371094 15.523437 17.574219 27.722656 33.097657 33.097656 3.609375 1.25 3.609375 6.355469 0 7.605469-15.523438 5.375-27.726563 17.574219-33.097657 33.097656zm0 0" fill="#f7ef87"/><path d="m143.113281 404.773438c-1.148437 3.316406-5.839843 3.316406-6.988281 0-4.9375-14.265626-16.148438-25.472657-30.410156-30.410157-3.320313-1.148437-3.320313-5.839843 0-6.992187 14.261718-4.933594 25.472656-16.144532 30.410156-30.40625 1.144531-3.320313 5.839844-3.320313 6.988281 0 4.9375 14.261718 16.144531 25.472656 30.410157 30.40625 3.316406 1.148437 3.316406 5.84375 0 6.992187-14.265626 4.9375-25.472657 16.144531-30.410157 30.410157zm0 0" fill="#eea849"/><path d="m429.785156 337.195312c-13.4375-4.652343-23.8125-15.023437-28.460937-28.460937-1.632813-4.714844-5.90625-7.757813-10.894531-7.757813-4.984376 0-9.261719 3.042969-10.890626 7.753907-4.648437 13.441406-15.023437 23.8125-28.460937 28.464843-4.710937 1.628907-7.757813 5.90625-7.757813 10.890626 0 4.984374 3.046876 9.261718 7.757813 10.894531 13.4375 4.648437 23.8125 15.023437 28.460937 28.460937 1.632813 4.710938 5.90625 7.757813 10.890626 7.757813 4.988281 0 9.261718-3.046875 10.894531-7.757813 4.648437-13.4375 15.023437-23.8125 28.460937-28.460937 4.710938-1.632813 7.757813-5.90625 7.757813-10.894531 0-4.984376-3.046875-9.261719-7.757813-10.890626zm-39.351562 37.589844c-5.851563-11.542968-15.15625-20.847656-26.699219-26.699218 11.542969-5.851563 20.847656-15.152344 26.699219-26.699219 5.847656 11.546875 15.152344 20.851562 26.699218 26.699219-11.546874 5.851562-20.851562 15.152343-26.699218 26.699218zm-72.945313-14.234375c11.488281-11.488281 17.816407-26.761719 17.816407-43.011719 0-5.847656-.832032-11.566406-2.417969-17.03125 5.546875 1.605469 11.273437 2.414063 17.003906 2.414063 15.578125 0 31.15625-5.929687 43.011719-17.785156 11.492187-11.492188 17.816406-26.765625 17.816406-43.015625 0-16.246094-6.324219-31.519532-17.816406-43.011719l-9.9375-9.941406 9.9375-9.9375c11.492187-11.488281 17.816406-26.765625 17.816406-43.011719 0-16.25-6.324219-31.523438-17.816406-43.015625-16.21875-16.21875-39.398438-21.339844-60.015625-15.371094 1.585937-5.464843 2.417969-11.183593 2.417969-17.03125 0-16.246093-6.328126-31.523437-17.816407-43.011719-23.71875-23.71875-62.308593-23.71875-86.027343 0l-9.9375 9.941407-9.941407-9.941407c-23.71875-23.714843-62.308593-23.714843-86.027343 0-1.988282 1.992188-3.855469 4.136719-5.546876 6.367188-2.5 3.304688-1.847656 8.007812 1.457032 10.507812 3.300781 2.503907 8.007812 1.847657 10.503906-1.453124 1.277344-1.6875 2.6875-3.308594 4.195312-4.8125 17.867188-17.867188 46.941407-17.871094 64.808594-.003907l12.535156 12.535157c4.417969 4.417968 11.609376 4.421874 16.027344 0l12.535156-12.53125c17.867188-17.867188 46.941407-17.871094 64.808594 0 8.65625 8.652343 13.425782 20.164062 13.425782 32.402343 0 12.242188-4.769532 23.75-13.425782 32.40625l-85.355468 85.355469-85.359376-85.355469c-8.347656-8.351562-13.109374-19.441406-13.40625-31.238281-.105468-4.140625-3.535156-7.398438-7.6875-7.308594-4.140624.101563-7.414062 3.546875-7.308593 7.6875.136719 5.320313.96875 10.527344 2.425781 15.527344-12.382812-3.601562-25.828125-3.285156-38.257812 1.332031-6.304688-5.277343-11.144532-12.203125-13.925782-20.238281-1.632812-4.710938-5.90625-7.757812-10.894531-7.757812-4.984375 0-9.261719 3.046874-10.890625 7.757812-4.648438 13.4375-15.023438 23.8125-28.460938 28.460938-4.710937 1.632812-7.757812 5.90625-7.757812 10.894531 0 4.984375 3.046875 9.261719 7.757812 10.890625 10.703126 3.703125 19.453126 11.050781 24.921876 20.671875-1.878907 18.136719 4.535156 36.417969 17.460937 49.34375l9.941406 9.941406-9.941406 9.941406c-23.714844 23.714844-23.714844 62.304688 0 86.023438 11.859375 11.859375 27.4375 17.789062 43.011719 17.789062 5.738281 0 11.476562-.8125 17.027344-2.421875-1.371094 4.714844-2.1875 9.617188-2.382813 14.613282-.511719 12.988281 3.109375 25.636718 10.261719 36.28125-4.191406 3.902343-9.195313 6.949218-14.796875 8.886718-4.578125 1.585938-7.535157 5.738282-7.535157 10.585938 0 4.84375 2.957032 8.996094 7.535157 10.582031 12.167969 4.210937 21.5625 13.605469 25.773437 25.773437 1.585938 4.578126 5.738282 7.535157 10.582032 7.535157h.003906c4.84375 0 8.996094-2.957031 10.582031-7.535157 4.210937-12.167968 13.605469-21.5625 25.773437-25.773437 2.472657-.855469 4.46875-2.46875 5.785157-4.527344 5.433593-1.195312 10.613281-3.117187 15.453125-5.703125 4.015625 22.0625 9.605468 41.136719 17.007812 58.007813 15.324219 34.9375 37.796875 59.917969 70.726563 78.621093 4.785156 2.714844 10.207031 4.148438 15.683593 4.148438 11.433594 0 22.039063-6.167969 27.679688-16.101562 4.335938-7.636719 5.320312-16.824219 2.699219-25.207032-1.238281-3.953125-5.445313-6.160156-9.398438-4.917968-3.953125 1.234374-6.15625 5.441406-4.921875 9.394531 1.40625 4.496093.902344 9.230469-1.421875 13.320312-2.980469 5.25-8.589843 8.511719-14.636719 8.511719-2.882812 0-5.746093-.757812-8.273437-2.195312-29.976563-17.023438-50.4375-39.773438-64.398437-71.601563-7.597657-17.316406-13.378907-38.109375-17.214844-61.84375.277344-.269531.5625-.53125.835937-.804687l9.941407-9.941407 9.941406 9.941407c4.648437 4.648437 9.871094 8.371093 15.4375 11.199218 8.5625 39.246094 23.589844 66.011719 47.125 84.027344 1.359375 1.042969 2.964844 1.546875 4.554687 1.546875 2.253907 0 4.484375-1.015625 5.960938-2.941406 2.519531-3.289063 1.894531-7.996094-1.394531-10.515625-12.183594-9.324219-28.988282-26.207032-39.476563-66.503906 3.570313.640624 7.1875.976562 10.804687.976562 15.574219-.003906 31.152344-5.933594 43.011719-17.792969zm0-256.738281c17.867188-17.867188 46.941407-17.867188 64.808594 0 8.65625 8.65625 13.421875 20.164062 13.421875 32.40625 0 12.238281-4.765625 23.75-13.421875 32.402344l-12.53125 12.535156c-4.421875 4.417969-4.421875 11.609375 0 16.027344l12.53125 12.535156c8.65625 8.652344 13.421875 20.164062 13.421875 32.402344 0 12.242187-4.765625 23.75-13.421875 32.40625-17.867187 17.867187-46.941406 17.867187-64.808594 0l-85.359375-85.359375zm-297.078125-5.492188c11.546875-5.847656 20.847656-15.148437 26.699219-26.695312 5.851563 11.546875 15.152344 20.847656 26.699219 26.695312-11.546875 5.855469-20.847656 15.15625-26.699219 26.699219-5.851563-11.542969-15.152344-20.847656-26.699219-26.699219zm40.335938 176.207032c-17.867188-17.867188-17.867188-46.941406 0-64.808594l12.535156-12.535156c4.417969-4.417969 4.417969-11.609375 0-16.027344l-12.535156-12.535156c-6.507813-6.503906-10.78125-14.558594-12.53125-23.246094 4.503906-.414062 8.277344-3.339844 9.785156-7.699219 4.652344-13.4375 15.023438-23.8125 28.464844-28.460937 4.710937-1.632813 7.753906-5.90625 7.753906-10.894532 0-3.03125-1.128906-5.792968-3.070312-7.863281 12.585937-.523437 25.179687 4.128907 34.40625 13.355469l85.359374 85.355469-85.359374 85.359375c-17.863282 17.871094-46.941407 17.871094-64.808594 0zm78.871094 119.550781c-5.273438-9.894531-13.3125-17.9375-23.210938-23.210937 9.898438-5.273438 17.9375-13.3125 23.210938-23.207032 5.273437 9.894532 13.316406 17.933594 23.210937 23.207032-9.894531 5.273437-17.9375 13.316406-23.210937 23.210937zm102.453124-44.132813-12.535156-12.535156c-4.417968-4.417968-11.609375-4.417968-16.027344.003906l-12.535156 12.53125c-.886718.886719-1.804687 1.738282-2.753906 2.542969-.109375.082031-.214844.175781-.324219.265625-5.425781 4.535156-11.742187 7.703125-18.605469 9.339844-.972656-.761719-2.082031-1.382812-3.316406-1.808594-12.167968-4.210937-21.558594-13.605468-25.773437-25.773437-1.585938-4.578125-5.738281-7.535157-10.582031-7.535157-4.847657 0-9 2.957032-10.582032 7.535157-.421875 1.210937-.90625 2.386719-1.425781 3.542969-8.566406-17.230469-5.546875-38.816407 8.554687-52.917969l85.355469-85.359375 85.359375 85.359375c8.652344 8.65625 13.421875 20.164062 13.421875 32.402343 0 12.242188-4.769531 23.75-13.421875 32.40625-17.867187 17.867188-46.941406 17.867188-64.808594 0zm0 0"/></svg>